<svg width="445" height="105" viewBox="0 0 445 105" fill="none" xmlns="http://www.w3.org/2000/svg">
<path d="M146.481 76.7719H129.097V27.8646H146.625C151.558 27.8646 155.804 28.8437 159.364 30.8019C162.924 32.7442 165.661 35.5382 167.577 39.184C169.509 42.8297 170.474 47.1919 170.474 52.2705C170.474 57.365 169.509 61.7431 167.577 65.4048C165.661 69.0664 162.908 71.8764 159.316 73.8346C155.74 75.7928 151.462 76.7719 146.481 76.7719ZM139.466 67.9122H146.05C149.115 67.9122 151.694 67.3709 153.785 66.2883C155.892 65.1898 157.472 63.4943 158.526 61.2018C159.595 58.8934 160.13 55.9163 160.13 52.2705C160.13 48.6566 159.595 45.7034 158.526 43.4108C157.472 41.1183 155.9 39.4307 153.809 38.3482C151.717 37.2656 149.139 36.7243 146.074 36.7243H139.466V67.9122Z" fill="white"/>
<path d="M190.679 77.4883C186.896 77.4883 183.639 76.7241 180.909 75.1958C178.196 73.6515 176.104 71.4704 174.636 68.6525C173.167 65.8187 172.433 62.4675 172.433 58.5988C172.433 54.8257 173.167 51.5143 174.636 48.6645C176.104 45.8148 178.172 43.5939 180.838 42.0019C183.519 40.4098 186.664 39.6138 190.272 39.6138C192.698 39.6138 194.957 40.0039 197.048 40.784C199.156 41.5482 200.991 42.7024 202.556 44.2466C204.136 45.7909 205.365 47.7332 206.243 50.0735C207.121 52.3979 207.56 55.1202 207.56 58.2406V61.0346H176.504V54.7302H197.958C197.958 53.2655 197.639 51.968 197.001 50.8377C196.362 49.7073 195.476 48.8237 194.343 48.1869C193.225 47.5342 191.924 47.2078 190.44 47.2078C188.891 47.2078 187.518 47.566 186.321 48.2825C185.14 48.9829 184.214 49.9302 183.543 51.1242C182.873 52.3023 182.53 53.6158 182.514 55.0645V61.0585C182.514 62.8734 182.849 64.4416 183.519 65.763C184.206 67.0844 185.172 68.1033 186.417 68.8197C187.662 69.5361 189.139 69.8943 190.847 69.8943C191.98 69.8943 193.018 69.7351 193.959 69.4167C194.901 69.0983 195.707 68.6207 196.378 67.9839C197.048 67.347 197.559 66.567 197.91 65.6436L207.345 66.2645C206.866 68.5252 205.884 70.4993 204.4 72.1868C202.931 73.8585 201.031 75.1639 198.701 76.1032C196.386 77.0266 193.712 77.4883 190.679 77.4883Z" fill="white"/>
<path d="M243.473 40.0914L230.614 76.7719H219.121L206.262 40.0914H217.037L224.676 66.3361H225.059L232.674 40.0914H243.473Z" fill="white"/>
<path d="M244.839 76.7719V27.8646H264.186C267.906 27.8646 271.074 28.5731 273.692 29.99C276.31 31.391 278.306 33.3412 279.679 35.8407C281.067 38.3243 281.762 41.1899 281.762 44.4377C281.762 47.6854 281.059 50.5511 279.655 53.0347C278.25 55.5182 276.215 57.4526 273.549 58.8376C270.899 60.2227 267.69 60.9152 263.923 60.9152H251.591V52.6287H262.247C264.242 52.6287 265.886 52.2864 267.179 51.6018C268.488 50.9013 269.462 49.9382 270.101 48.7123C270.755 47.4705 271.082 46.0456 271.082 44.4377C271.082 42.8138 270.755 41.3969 270.101 40.187C269.462 38.9611 268.488 38.0138 267.179 37.3452C265.87 36.6606 264.21 36.3183 262.199 36.3183H255.207V76.7719H244.839Z" fill="white"/>
<path d="M293.759 77.4644C291.413 77.4644 289.321 77.0585 287.486 76.2465C285.65 75.4187 284.197 74.2008 283.128 72.5928C282.074 70.9689 281.547 68.947 281.547 66.5272C281.547 64.4894 281.922 62.7779 282.673 61.3928C283.423 60.0078 284.445 58.8934 285.738 58.0496C287.031 57.2058 288.499 56.569 290.144 56.1391C291.804 55.7093 293.544 55.4068 295.364 55.2317C297.503 55.0088 299.227 54.8018 300.536 54.6108C301.845 54.4038 302.795 54.1013 303.385 53.7033C303.976 53.3053 304.271 52.7163 304.271 51.9362V51.7929C304.271 50.2805 303.792 49.1103 302.834 48.2825C301.893 47.4546 300.552 47.0407 298.812 47.0407C296.976 47.0407 295.515 47.4466 294.43 48.2586C293.344 49.0546 292.626 50.0576 292.275 51.2675L282.84 50.5033C283.319 48.2745 284.261 46.3481 285.666 44.7243C287.071 43.0845 288.882 41.8268 291.101 40.9511C293.336 40.0596 295.922 39.6138 298.86 39.6138C300.903 39.6138 302.858 39.8526 304.726 40.3302C306.61 40.8079 308.278 41.5481 309.731 42.5511C311.199 43.5541 312.357 44.8437 313.203 46.4198C314.049 47.98 314.472 49.8506 314.472 52.0317V76.7719H304.798V71.6853H304.511C303.92 72.8316 303.13 73.8425 302.14 74.7182C301.15 75.5779 299.961 76.2545 298.572 76.748C297.183 77.2256 295.579 77.4644 293.759 77.4644ZM296.681 70.4436C298.181 70.4436 299.506 70.149 300.655 69.56C301.805 68.955 302.707 68.1431 303.361 67.1242C304.016 66.1053 304.343 64.951 304.343 63.6615V59.769C304.024 59.9759 303.585 60.167 303.026 60.3421C302.483 60.5013 301.869 60.6526 301.182 60.7958C300.496 60.9232 299.809 61.0426 299.123 61.154C298.437 61.2496 297.814 61.3371 297.255 61.4167C296.058 61.5918 295.012 61.8705 294.118 62.2525C293.225 62.6346 292.53 63.152 292.035 63.8048C291.54 64.4416 291.293 65.2376 291.293 66.1928C291.293 67.5779 291.796 68.6366 292.801 69.3689C293.823 70.0853 295.116 70.4436 296.681 70.4436Z" fill="white"/>
<path d="M318.34 76.7719V40.0914H328.229V46.4914H328.612C329.283 44.2148 330.408 42.4954 331.989 41.3332C333.569 40.1551 335.389 39.5661 337.448 39.5661C337.959 39.5661 338.51 39.5979 339.1 39.6616C339.691 39.7253 340.21 39.8128 340.657 39.9243V48.9511C340.178 48.8078 339.515 48.6805 338.669 48.569C337.823 48.4576 337.049 48.4019 336.346 48.4019C334.846 48.4019 333.505 48.7282 332.324 49.381C331.158 50.0178 330.233 50.9093 329.546 52.0556C328.876 53.2018 328.54 54.5232 328.54 56.0197V76.7719H318.34Z" fill="white"/>
<path d="M351.319 77.4644C348.972 77.4644 346.881 77.0585 345.045 76.2465C343.21 75.4187 341.757 74.2008 340.687 72.5928C339.634 70.9689 339.107 68.947 339.107 66.5272C339.107 64.4894 339.482 62.7779 340.233 61.3928C340.983 60.0078 342.004 58.8934 343.297 58.0496C344.591 57.2058 346.059 56.569 347.703 56.1391C349.364 55.7093 351.104 55.4068 352.923 55.2317C355.063 55.0088 356.787 54.8018 358.096 54.6108C359.405 54.4038 360.354 54.1013 360.945 53.7033C361.536 53.3053 361.831 52.7163 361.831 51.9362V51.7929C361.831 50.2805 361.352 49.1103 360.394 48.2825C359.452 47.4546 358.112 47.0407 356.371 47.0407C354.536 47.0407 353.075 47.4466 351.99 48.2586C350.904 49.0546 350.186 50.0576 349.834 51.2675L340.4 50.5033C340.879 48.2745 341.821 46.3481 343.226 44.7243C344.63 43.0845 346.442 41.8268 348.661 40.9511C350.896 40.0596 353.482 39.6138 356.419 39.6138C358.463 39.6138 360.418 39.8526 362.286 40.3302C364.17 40.8079 365.838 41.5481 367.29 42.5511C368.759 43.5541 369.916 44.8437 370.762 46.4198C371.609 47.98 372.032 49.8506 372.032 52.0317V76.7719H362.358V71.6853H362.07C361.48 72.8316 360.69 73.8425 359.7 74.7182C358.71 75.5779 357.521 76.2545 356.132 76.748C354.743 77.2256 353.139 77.4644 351.319 77.4644ZM354.24 70.4436C355.741 70.4436 357.066 70.149 358.215 69.56C359.365 68.955 360.267 68.1431 360.921 67.1242C361.576 66.1053 361.903 64.951 361.903 63.6615V59.769C361.584 59.9759 361.145 60.167 360.586 60.3421C360.043 60.5013 359.428 60.6526 358.742 60.7958C358.056 60.9232 357.369 61.0426 356.683 61.154C355.996 61.2496 355.374 61.3371 354.815 61.4167C353.618 61.5918 352.572 61.8705 351.678 62.2525C350.784 62.6346 350.09 63.152 349.595 63.8048C349.1 64.4416 348.853 65.2376 348.853 66.1928C348.853 67.5779 349.356 68.6366 350.361 69.3689C351.383 70.0853 352.676 70.4436 354.24 70.4436Z" fill="white"/>
<path d="M386.1 55.566V76.7719H375.9V40.0914H385.621V46.5631H386.052C386.866 44.4297 388.231 42.7422 390.147 41.5004C392.063 40.2427 394.385 39.6138 397.115 39.6138C399.669 39.6138 401.896 40.171 403.796 41.2855C405.695 42.3999 407.172 43.9919 408.225 46.0616C409.279 48.1153 409.806 50.567 409.806 53.4168V76.7719H399.605V55.2317C399.621 52.9869 399.047 51.2357 397.881 49.978C396.716 48.7043 395.112 48.0675 393.068 48.0675C391.695 48.0675 390.482 48.3621 389.429 48.9511C388.391 49.5402 387.577 50.3999 386.986 51.5302C386.412 52.6446 386.116 53.9899 386.1 55.566Z" fill="white"/>
<path d="M424.288 77.4644C421.941 77.4644 419.85 77.0585 418.014 76.2465C416.178 75.4187 414.725 74.2008 413.656 72.5928C412.602 70.9689 412.076 68.947 412.076 66.5272C412.076 64.4894 412.451 62.7779 413.201 61.3928C413.951 60.0078 414.973 58.8934 416.266 58.0496C417.559 57.2058 419.028 56.569 420.672 56.1391C422.332 55.7093 424.072 55.4068 425.892 55.2317C428.031 55.0088 429.755 54.8018 431.064 54.6108C432.373 54.4038 433.323 54.1013 433.913 53.7033C434.504 53.3053 434.799 52.7163 434.799 51.9362V51.7929C434.799 50.2805 434.321 49.1103 433.363 48.2825C432.421 47.4546 431.08 47.0407 429.34 47.0407C427.504 47.0407 426.044 47.4466 424.958 48.2586C423.872 49.0546 423.154 50.0576 422.803 51.2675L413.369 50.5033C413.848 48.2745 414.789 46.3481 416.194 44.7243C417.599 43.0845 419.411 41.8268 421.63 40.9511C423.865 40.0596 426.451 39.6138 429.388 39.6138C431.431 39.6138 433.387 39.8526 435.254 40.3302C437.138 40.8079 438.806 41.5481 440.259 42.5511C441.728 43.5541 442.885 44.8437 443.731 46.4198C444.577 47.98 445 49.8506 445 52.0317V76.7719H435.326V71.6853H435.039C434.448 72.8316 433.658 73.8425 432.668 74.7182C431.679 75.5779 430.489 76.2545 429.101 76.748C427.712 77.2256 426.107 77.4644 424.288 77.4644ZM427.209 70.4436C428.709 70.4436 430.034 70.149 431.184 69.56C432.333 68.955 433.235 68.1431 433.89 67.1242C434.544 66.1053 434.871 64.951 434.871 63.6615V59.769C434.552 59.9759 434.113 60.167 433.554 60.3421C433.012 60.5013 432.397 60.6526 431.711 60.7958C431.024 60.9232 430.338 61.0426 429.651 61.154C428.965 61.2496 428.342 61.3371 427.784 61.4167C426.586 61.5918 425.541 61.8705 424.647 62.2525C423.753 62.6346 423.058 63.152 422.563 63.8048C422.069 64.4416 421.821 65.2376 421.821 66.1928C421.821 67.5779 422.324 68.6366 423.33 69.3689C424.351 70.0853 425.644 70.4436 427.209 70.4436ZM426.107 35.3631L431.184 24.4975H440.618L433.315 35.3631H426.107Z" fill="white"/>
<path d="M48.2077 102.416L2.65974 58.6908C-0.886578 55.2864 -0.886578 49.6832 2.65974 46.2788L48.2077 2.55331C51.754 -0.851105 57.5907 -0.851105 61.137 2.55331L106.685 46.2788C110.231 49.6832 110.231 55.2864 106.685 58.6908L61.137 102.416C60.006 103.502 58.6312 104.241 57.1716 104.635C55.2012 105.165 53.0785 105.065 51.1907 104.335C50.0904 103.91 49.0703 103.27 48.2077 102.416Z" fill="#15A04B"/>
<path d="M24.187 45.2319C22.303 45.2319 20.7515 43.778 20.7515 41.9339C20.7515 40.0899 22.303 38.6359 24.187 38.6359C26.071 38.6359 27.6225 40.1253 27.6225 41.9339C27.6225 43.7425 26.034 45.2319 24.187 45.2319Z" fill="#15A04B"/>
<path d="M38.7786 35.9841C36.8946 35.9841 35.3431 34.4946 35.3431 32.686C35.3431 30.842 36.8946 29.388 38.7786 29.388C40.6626 29.388 42.2141 30.8774 42.2141 32.686C42.2141 34.4946 40.6256 35.9841 38.7786 35.9841Z" fill="#15A04B"/>
<path d="M54.4784 34.2425C51.8926 34.2425 49.7869 32.2211 49.7869 29.7387C49.7869 27.2208 51.8926 25.1995 54.4784 25.1995C57.0643 25.1995 59.1699 27.2208 59.1699 29.7032C59.1699 32.1856 57.0643 34.2425 54.4784 34.2425Z" fill="#15A04B"/>
<path d="M67.6293 37.3949C67.6293 35.5508 69.1808 34.0614 71.0648 34.0614C72.9857 34.0614 74.5003 35.5508 74.5003 37.3949C74.5003 39.2389 72.9488 40.6929 71.0648 40.6929C69.2178 40.6929 67.6293 39.168 67.6293 37.3949Z" fill="#15A04B"/>
<path d="M85.0654 47.2852C83.1445 47.2852 81.6299 45.7958 81.6299 43.9872C81.6299 42.1786 83.1814 40.6891 85.0654 40.6891C85.9889 40.6891 86.8755 41.0438 87.5404 41.6466C88.2053 42.285 88.5009 43.1006 88.5009 43.9517C88.5009 45.7958 86.9494 47.2852 85.0654 47.2852Z" fill="#15A04B"/>
<path fill-rule="evenodd" clip-rule="evenodd" d="M85.0654 38.7032C82.0732 38.7032 79.5981 41.0792 79.5981 43.9517C79.5981 46.2568 81.1866 48.3136 83.44 48.9874V58.7397C83.44 64.2718 79.8198 67.3216 71.6928 68.5628L68.9961 68.9529C64.5632 69.7331 60.8322 71.0452 57.877 72.9247V60.8395L57.9139 60.1265V57.5377C59.4654 56.2256 61.6449 55.4099 64.6371 55.0553H64.6741C69.8088 54.3106 72.4316 51.97 72.4316 48.1755V42.466C74.7958 41.8986 76.6059 39.8418 76.6059 37.3594C76.6059 34.4515 74.1309 32.0755 71.1387 32.0755C68.1465 32.0755 65.6715 34.4515 65.6715 37.3949C65.6715 39.9127 67.5554 42.0405 69.9935 42.537V48.211C69.9935 50.8352 68.2943 52.1828 64.3047 52.7857C61.7188 53.0694 59.6132 53.7077 57.9508 54.7007V35.3418C59.9456 34.207 61.2755 32.1502 61.2755 29.8096C61.2755 26.2634 58.2833 23.3554 54.5523 23.3554C50.8582 23.3554 47.8291 26.2279 47.8291 29.8096C47.8291 32.1856 49.1589 34.2425 51.1537 35.3418V47.8286C49.6392 47.1194 47.8291 46.6229 45.6865 46.3747C40.6995 45.6654 40.0715 43.6086 40.0715 41.8709V37.8636C42.4727 37.3317 44.3197 35.2394 44.3197 32.7215C44.3197 29.849 41.8447 27.473 38.8525 27.473C35.8603 27.473 33.3852 29.8136 33.3852 32.686C33.3852 35.2039 35.2323 37.2607 37.6334 37.8281V41.8354C37.6334 45.6299 40.2193 47.935 45.354 48.6443C47.8291 48.9989 49.7131 49.5308 51.1537 50.4883V63.2115C47.7183 61.1192 43.3962 59.7362 38.0028 59.0979C29.6911 57.8921 25.9971 54.8778 25.9971 49.2392V47.0051C28.1766 46.2958 29.7281 44.3454 29.7281 42.0048C29.7281 39.1324 27.2531 36.7564 24.2609 36.7564C21.2687 36.7564 18.7936 39.1324 18.7936 42.0048C18.7936 44.3099 20.3451 46.2958 22.5246 47.0051V49.2392C22.5246 53.3529 24.1131 56.58 27.29 58.8142C29.6911 60.5518 33.0528 61.6866 37.5226 62.325H37.5595C43.5439 63.0697 47.9768 64.701 51.1907 67.2543V104.352C51.1907 104.352 52.6093 105 54.6077 105C56.6061 105 58.0247 104.363 58.0247 104.363V86.7982L57.9508 83.9612V77.0739C60.8322 74.627 64.7479 73.0311 69.9197 72.18L72.4686 71.8254C76.6798 71.1516 79.8937 70.0168 82.2209 68.3501C85.3978 66.1159 86.9863 62.8888 86.9863 58.7751V48.9874C88.9811 48.2427 90.4957 46.2923 90.4957 43.9872C90.4957 42.6041 89.9416 41.292 88.9442 40.2636C87.9098 39.2706 86.543 38.7032 85.0654 38.7032ZM71.0648 34.0614C69.1808 34.0614 67.6293 35.5508 67.6293 37.3949C67.6293 39.168 69.2178 40.6929 71.0648 40.6929C72.9488 40.6929 74.5003 39.2389 74.5003 37.3949C74.5003 35.5508 72.9857 34.0614 71.0648 34.0614ZM35.3431 32.686C35.3431 34.4946 36.8946 35.9841 38.7786 35.9841C40.6256 35.9841 42.2141 34.4946 42.2141 32.686C42.2141 30.8774 40.6626 29.388 38.7786 29.388C36.8946 29.388 35.3431 30.842 35.3431 32.686ZM20.7515 41.9339C20.7515 43.778 22.303 45.2319 24.187 45.2319C26.034 45.2319 27.6225 43.7425 27.6225 41.9339C27.6225 40.1253 26.071 38.6359 24.187 38.6359C22.303 38.6359 20.7515 40.0899 20.7515 41.9339ZM49.7869 29.7387C49.7869 32.2211 51.8926 34.2425 54.4784 34.2425C57.0643 34.2425 59.1699 32.1856 59.1699 29.7032C59.1699 27.2208 57.0643 25.1995 54.4784 25.1995C51.8926 25.1995 49.7869 27.2208 49.7869 29.7387ZM81.6299 43.9872C81.6299 45.7958 83.1445 47.2852 85.0654 47.2852C86.9494 47.2852 88.5009 45.7958 88.5009 43.9517C88.5009 43.1006 88.2053 42.285 87.5404 41.6466C86.8755 41.0438 85.9889 40.6891 85.0654 40.6891C83.1814 40.6891 81.6299 42.1786 81.6299 43.9872Z" fill="#FAF8F9"/>
</svg>
